<?xml version="1.0" encoding="utf-8"?>
<!DOCTYPE svg PUBLIC "-//W3C//DTD SVG 1.1//EN" "http://www.w3.org/Graphics/SVG/1.1/DTD/svg11.dtd">
<svg version="1.1" id="icono" xmlns="http://www.w3.org/2000/svg" xmlns:xlink="http://www.w3.org/1999/xlink" 
	 width="24px" height="24px" viewBox="0 0 24 24" opacity="0.5">
	 <style>
	 	#icono:hover{
	 		opacity:1;
	 	}

	</style>
	<a xlink:href="https://soundcloud.com/tzootz" target="_blank" >
		<path id="fondo" fill="#000000" d="M12,23.836c6.538,0,11.836-5.298,11.836-11.836c0-6.537-5.299-11.836-11.836-11.836
			C5.461,0.164,0.163,5.463,0.163,12C0.163,18.538,5.461,23.836,12,23.836"/>
		<path id="letra" fill="#FFFFFF" d="M6.689,13.941c0.025,0,0.045-0.02,0.049-0.049l0.131-1.032l-0.131-1.056
			c-0.004-0.027-0.024-0.047-0.049-0.047c-0.024,0-0.045,0.02-0.049,0.047l-0.115,1.056l0.115,1.032
			C6.644,13.922,6.665,13.941,6.689,13.941z M6.302,13.502L6.302,13.502L6.302,13.502L6.302,13.502z M6.255,13.549
			c0.023,0,0.043-0.02,0.046-0.047l0.102-0.641l-0.102-0.653c-0.003-0.027-0.023-0.046-0.046-0.046c-0.025,0-0.044,0.02-0.048,0.047
			l-0.086,0.652l0.086,0.641C6.211,13.529,6.23,13.549,6.255,13.549z M7.21,11.608c-0.004-0.033-0.029-0.058-0.059-0.058
			c-0.032,0-0.056,0.024-0.06,0.058c0,0-0.11,1.252-0.11,1.252l0.11,1.208c0.003,0.033,0.028,0.057,0.06,0.057
			c0.03,0,0.055-0.023,0.058-0.057l0.125-1.208L7.21,11.608z M7.617,14.174c0.036,0,0.066-0.029,0.069-0.068l0,0l0.117-1.245
			l-0.117-1.286c-0.003-0.04-0.033-0.068-0.069-0.068c-0.036,0-0.066,0.029-0.069,0.068l-0.104,1.286l0.104,1.245
			C7.551,14.145,7.581,14.174,7.617,14.174z M8.087,14.193c0.042,0,0.075-0.031,0.078-0.076l0,0l0.111-1.256l-0.111-1.194
			c-0.003-0.043-0.037-0.078-0.078-0.078c-0.043,0-0.077,0.035-0.08,0.079L7.91,12.861l0.098,1.256
			C8.01,14.162,8.044,14.193,8.087,14.193z M8.753,12.862l-0.104-1.943c-0.003-0.049-0.042-0.088-0.089-0.088
			c-0.046,0-0.086,0.04-0.088,0.088l-0.092,1.943l0.092,1.255c0.002,0.049,0.042,0.088,0.088,0.088c0.048,0,0.086-0.039,0.089-0.088
			l0,0L8.753,12.862z M9.036,14.207c0.053,0,0.097-0.043,0.1-0.098l0,0l0.097-1.248l-0.097-2.387c-0.003-0.055-0.046-0.098-0.1-0.098
			S8.94,10.42,8.937,10.475l-0.085,2.387l0.085,1.248C8.94,14.164,8.983,14.207,9.036,14.207z M9.518,10.168
			c-0.059,0-0.107,0.048-0.109,0.109l-0.081,2.585l0.081,1.236c0.001,0.059,0.05,0.107,0.109,0.107c0.059,0,0.106-0.049,0.109-0.107
			l0,0l0.09-1.236l-0.09-2.585C9.624,10.216,9.576,10.168,9.518,10.168z M10.002,14.207c0.065,0,0.117-0.053,0.119-0.117l0,0
			l0.083-1.227l-0.083-2.673c-0.002-0.067-0.054-0.119-0.119-0.119s-0.117,0.052-0.119,0.119l-0.074,2.672l0.074,1.228
			C9.885,14.154,9.937,14.207,10.002,14.207z M10.49,14.207c0.071,0,0.127-0.059,0.129-0.129l0,0l0.076-1.215l-0.076-2.605
			c-0.002-0.072-0.059-0.128-0.129-0.128s-0.127,0.056-0.129,0.128l-0.069,2.605l0.069,1.215
			C10.363,14.148,10.419,14.207,10.49,14.207z M11.191,12.863l-0.069-2.51c-0.002-0.077-0.063-0.138-0.139-0.138
			c-0.077,0-0.138,0.061-0.14,0.138l-0.062,2.51l0.062,1.208c0.001,0.076,0.062,0.137,0.139,0.137c0.076,0,0.137-0.061,0.139-0.137
			l0,0L11.191,12.863z M11.478,14.209c0.081,0,0.148-0.066,0.149-0.148v0.002l0.063-1.2l-0.063-2.986c0-0.082-0.068-0.148-0.149-0.148
			s-0.147,0.066-0.149,0.148l-0.057,2.985c0,0.002,0.057,1.201,0.057,1.201C11.331,14.143,11.397,14.209,11.478,14.209z M11.972,9.447
			c-0.087,0-0.158,0.071-0.16,0.159l-0.065,3.257l0.065,1.181c0.001,0.086,0.073,0.158,0.16,0.158c0.086,0,0.157-0.072,0.159-0.158
			v0.002l0.071-1.183l-0.071-3.258C12.129,9.519,12.059,9.447,11.972,9.447z M12.423,14.211c0.004,0,3.983,0.002,4.008,0.002
			c0.799,0,1.445-0.646,1.445-1.445c0-0.799-0.646-1.446-1.445-1.446c-0.198,0-0.387,0.04-0.559,0.112
			c-0.115-1.304-1.208-2.326-2.541-2.326c-0.327,0-0.645,0.064-0.925,0.173c-0.109,0.042-0.138,0.086-0.139,0.17v4.59
			C12.269,14.129,12.337,14.203,12.423,14.211z"/>
	</a>
</svg>
