<?xml version="1.0" encoding="utf-8"?>
<!DOCTYPE svg PUBLIC "-//W3C//DTD SVG 1.1//EN" "http://www.w3.org/Graphics/SVG/1.1/DTD/svg11.dtd">
<svg id="icono" version="1.1" xmlns="http://www.w3.org/2000/svg" xmlns:xlink="http://www.w3.org/1999/xlink" width="24px" height="24px" viewBox="0 0 24 24" opacity="0.5">
	<style>
	 	#icono:hover{
	 		opacity:1;
	 	}

	</style>
	<a xlink:href="../index.html" target="_blank" >
		<path id="fondo" fill="#000000" d="M12.001,23.758c6.512,0,11.791-5.278,11.791-11.791c0-6.51-5.278-11.789-11.791-11.789
			c-6.51,0-11.79,5.279-11.79,11.789C0.212,18.479,5.491,23.758,12.001,23.758"/>
		<path id="letra" fill="#FFFFFF" d="M17.917,8.88c-0.435,0.192-0.901,0.323-1.393,0.382c0.503-0.3,0.888-0.775,1.067-1.341
			c-0.47,0.278-0.987,0.479-1.54,0.587c-0.44-0.471-1.07-0.765-1.769-0.765c-1.337,0-2.422,1.085-2.422,2.422
			c0,0.191,0.021,0.375,0.063,0.553c-2.013-0.103-3.798-1.066-4.996-2.533C6.72,8.545,6.601,8.962,6.601,9.406
			c0,0.839,0.429,1.581,1.079,2.016C7.282,11.41,6.909,11.3,6.582,11.12v0.03c0,1.174,0.835,2.154,1.943,2.376
			c-0.203,0.057-0.417,0.085-0.639,0.085c-0.156,0-0.308-0.015-0.455-0.043c0.308,0.964,1.203,1.663,2.262,1.681
			C8.866,15.9,7.82,16.286,6.686,16.286c-0.197,0-0.389-0.011-0.579-0.033c1.072,0.688,2.346,1.09,3.715,1.09
			c4.458,0,6.893-3.693,6.893-6.895c0-0.106-0.002-0.211-0.007-0.313C17.183,9.792,17.595,9.366,17.917,8.88"/>
	</a>
</svg>
