<?xml version="1.0" encoding="utf-8"?>
<!-- Generator: Adobe Illustrator 16.0.0, SVG Export Plug-In . SVG Version: 6.00 Build 0)  -->
<!DOCTYPE svg PUBLIC "-//W3C//DTD SVG 1.1//EN" "http://www.w3.org/Graphics/SVG/1.1/DTD/svg11.dtd">
<svg version="1.1" id="Capa_1" xmlns="http://www.w3.org/2000/svg" xmlns:xlink="http://www.w3.org/1999/xlink" x="0px" y="0px"
	 width="154.964px" height="123.958px" viewBox="0 0 154.964 123.958" enable-background="new 0 0 154.964 123.958"
	 xml:space="preserve">
<g>
	<path fill-rule="evenodd" clip-rule="evenodd" fill="#E62A2B" d="M100.601,28.038c0.862-0.569,0.604-1.477,0.662-2.275
		c1.419-21.107,23.722-32.18,41.157-20.226c7.513,5.151,11.038,12.802,10.881,21.89c-0.445,25.998-9.669,48.439-28.13,66.795
		c-9.539,9.485-20.735,16.633-33.324,21.625c-14.702,5.822-30.003,6.897-45.534,6.208c-11.234-0.501-21.006-4.715-29.178-12.498
		c-0.462-0.438-1.314-0.805-1.105-1.522c0.25-0.857,1.215-0.696,1.914-0.704c3.166-0.026,6.331-0.024,9.5,0.021
		c2.562,0.038,4.617,1.224,6.364,3.024c1.332,1.374,2.64,2.773,4.034,4.084c0.979,0.924,2.167,0.972,3.132,0.015
		c0.942-0.934,0.979-2.082,0.113-3.146c-0.416-0.516-0.965-0.927-1.358-1.457c-0.413-0.558-1.365-0.968-0.925-1.84
		c0.322-0.646,1.125-0.627,1.791-0.626c2.253,0.012,4.503,0.015,6.75,0.081c2.423,0.074,4.194,1.462,5.818,3.069
		c1.301,1.288,2.53,2.656,3.851,3.922c0.989,0.949,2.15,0.984,3.105-0.008c0.893-0.921,1.102-2.04,0.18-3.142
		c-0.217-0.255-0.483-0.469-0.659-0.747c-0.569-0.895-2.161-1.514-1.758-2.511c0.479-1.197,2.074-0.595,3.186-0.67
		c1.245-0.081,2.5,0.026,3.747-0.018c3.02-0.104,5.516,0.957,7.553,3.187c1.175,1.289,2.399,2.529,3.624,3.772
		c1.045,1.059,2.241,1.177,3.309,0.141c1.039-1.012,1.079-2.199,0.063-3.328c-0.113-0.123-0.226-0.247-0.33-0.376
		c-0.719-0.873-2.365-1.555-1.937-2.65c0.506-1.299,2.218-0.705,3.405-0.718c5.336-0.052,10.668-0.023,16-0.028
		c1.728-0.003,3.871,0.396,3.897-2.227c0.033-2.769-2.22-2.399-4.01-2.402c-22.997-0.009-45.998-0.004-68.998-0.004
		c-4.583,0-9.17-0.105-13.747,0.045c-1.954,0.06-3.037-0.692-3.99-2.285c-3.695-6.18-5.805-12.845-6.674-19.975
		c-0.278-2.286,0.192-3.986,2.191-5.181c6.196,0,12.393-0.014,18.587,0.018c0.928,0.003,2.044-0.388,2.626,0.811
		c-2.217,4.156-6.055,6.446-9.976,8.616c-1.455,0.806-2.972,1.482-4.184,2.672c-0.807,0.794-0.988,1.714-0.5,2.729
		c0.559,1.16,1.655,1.124,2.6,0.836c1.085-0.331,2.087-0.954,3.122-1.456c2.79-1.354,5.645-2.312,8.82-1.716
		c1.039,0.198,2.044,0.487,2.188,1.671c0.133,1.104-0.656,1.951-1.508,2.405c-1.115,0.592-2.093,1.315-3.012,2.146
		c-1.149,1.04-0.995,2.267-0.197,3.368c0.776,1.062,1.958,0.942,2.922,0.349c1.258-0.774,2.41-1.733,3.568-2.661
		c4.819-3.859,4.273-8.808-1.338-11.525c-1.179-0.565-1.401-1.155-0.58-1.978c1.718-1.706,2.756-3.905,4.341-5.697
		c8.118,0.126,16.233,0.223,24.348-0.084c2.35-0.691,4.809-0.863,7.203-1.408c2.555-0.58,4.796-2.04,7.416-2.298
		c0.203,0.795,0.386,1.592,0.616,2.378c0.376,1.286,0.715,2.793,2.52,2.395c1.641-0.362,2.063-1.649,1.895-3.269
		c-0.15-1.472-0.873-2.876-0.52-4.402c3.704-1.361,6.623-3.946,9.383-6.575c6.478-6.176,11.257-13.539,13.771-22.187
		C100.455,36.466,101.506,32.33,100.601,28.038z M105.178,26.64c0.325,12.121,9.715,21.332,21.409,21
		c11.686-0.331,21.079-9.875,20.839-21.166c-0.253-11.845-9.932-21.225-21.615-20.948C114.344,5.799,104.875,15.484,105.178,26.64z"
		/>
	<path fill-rule="evenodd" clip-rule="evenodd" fill="#080609" d="M71.623,72.151c-2.62,0.258-4.86,1.718-7.416,2.298
		c-2.394,0.545-4.854,0.717-7.197,1.406c-2.668-1.06-5.191-2.345-6.949-4.752c0.516-0.419,1.025-0.845,1.548-1.25
		c4.21-3.239,8.42-6.479,12.642-9.71c1.038-0.8,1.474-1.776,0.955-3.046c-0.482-1.188-1.461-1.504-2.633-1.411
		c-0.742,0.058-1.484,0.192-2.227,0.245c-7.279,0.538-14.539,1.507-21.868,1.096c0.057-1.131-0.13-2.205-0.755-3.174
		c-1.608-7.503-1.532-14.896,1.521-22.062c0.781-1.832,1.854-3.536,2.739-5.324c0.775-1.571,1.451-1.628,2.62-0.237
		c4.616,5.479,9.33,10.876,14.006,16.304c2.014,2.335,4.027,4.668,6.031,7.012c1.048,1.228,2.194,2.3,3.754,0.864
		c1.419-1.309,0.903-2.602-0.239-3.913c-6.77-7.804-13.434-15.703-20.294-23.423c-1.561-1.756-1.341-2.727,0.37-3.874
		c0.203-0.136,0.369-0.332,0.562-0.494c2.35-1.991,2.35-1.99,4.124,0.594c6.361,9.271,12.725,18.542,19.099,27.808
		c0.419,0.613,0.823,1.321,1.414,1.715c1.073,0.718,2.261,0.646,3.189-0.315c1.022-1.059,0.539-2.142-0.162-3.165
		c-3.356-4.873-6.708-9.744-10.06-14.618s-6.637-9.793-10.085-14.598c-1.068-1.489-0.692-2.018,0.795-2.623
		c5.498-2.251,11.17-3.191,17.108-2.623c1.326,0.125,1.802,0.523,2.005,1.869c1.018,6.758,1.734,13.544,2.249,20.358
		c0.156,2.075,0.4,4.147,0.493,6.226c0.06,1.421,0.536,2.437,2.02,2.72c1.433,0.275,2.078-0.617,2.623-1.768
		c2.993-6.323,6.088-12.596,8.99-18.958c0.812-1.787,1.336-1.886,2.626-0.476c2.037,2.223,3.899,4.555,5.377,7.187
		c0.908,4.292-0.144,8.428-1.312,12.453c-2.514,8.647-7.293,16.011-13.771,22.187c-2.76,2.629-5.679,5.214-9.383,6.574
		c-0.296-7.571,4.413-14.822,11.466-17.648c0.846-0.337,1.762-0.555,2.541-1.005c1.287-0.74,1.511-2.019,0.965-3.253
		c-0.502-1.136-1.468-1.266-2.72-0.873c-3.218,1.008-6.142,2.504-8.696,4.7C73.238,56.715,71.003,63.888,71.623,72.151z"/>
	<path fill-rule="evenodd" clip-rule="evenodd" fill="#383C90" d="M37.722,53.854c0.625,0.969,0.812,2.043,0.755,3.174
		c-0.406,0.044-0.815,0.129-1.222,0.122c-1.644-0.029-2.806,0.525-2.732,2.382c0.066,1.708,1.211,2.145,2.722,2.163
		c1.398,0.019,2.793,0.162,4.19,0.246c0.815,2.492,3.246,3.97,4.074,6.454c-0.895,0.73-1.813,1.435-2.679,2.194
		c-1.191,1.037-1.308,2.292-0.416,3.539c0.969,1.354,2.097,0.952,3.229,0.117c1.451-1.073,2.942-2.098,4.417-3.143
		c1.758,2.408,4.281,3.693,6.949,4.753c-8.121,0.309-16.236,0.212-24.354,0.087c0.073-0.823,0.083-1.656,0.229-2.462
		c0.682-3.651-0.137-7.021-3.129-9.137c-3.362-2.377-7.289-3.197-11.374-1.534c-1.191,0.486-1.651,1.364-1.338,2.591
		c0.346,1.36,1.298,1.85,2.646,1.649c0.985-0.147,1.964-0.369,2.953-0.423c2.456-0.135,4.41,0.764,5.475,3.084
		c0.942,2.043,0.22,4.585-1.73,6.472c-0.583-1.198-1.698-0.808-2.626-0.811c-6.194-0.031-12.392-0.018-18.587-0.018
		C4.286,69.089,5.07,62.972,7.783,57.317c2.11-4.395,1.897-7.896-1.656-11.387c-2.159-2.122-3.379-4.867-3.284-8.099
		c0.167-5.698,4.3-10.202,9.915-10.623c5.416-0.403,10.198,3.453,10.964,9.102c0.469,3.455,0.719,6.956,0.799,10.442
		c0.05,2.213,0.939,3.354,3.012,3.911C30.971,51.587,34.167,53.299,37.722,53.854z"/>
	<path fill-rule="evenodd" clip-rule="evenodd" fill="#080609" d="M82.91,29.521c-0.419-3.518-0.832-7.039-1.255-10.557
		c-0.207-1.729-0.354-3.471-0.673-5.182c-0.232-1.235,0.167-1.581,1.262-1.177c2.334,0.866,4.591,1.902,6.694,3.251
		c0.573,0.365,0.826,0.78,0.514,1.44c-1.938,4.096-3.872,8.193-5.806,12.289C83.399,29.562,83.154,29.544,82.91,29.521z"/>
	<path fill-rule="evenodd" clip-rule="evenodd" fill="#080609" d="M26.389,76.183c1.95-1.887,2.673-4.429,1.73-6.472
		c-1.065-2.32-3.019-3.219-5.475-3.084c-0.989,0.054-1.968,0.275-2.953,0.423c-1.348,0.2-2.3-0.289-2.646-1.649
		c-0.313-1.227,0.146-2.104,1.338-2.591c4.084-1.663,8.012-0.843,11.374,1.534c2.992,2.115,3.811,5.485,3.129,9.137
		c-0.146,0.806-0.157,1.639-0.229,2.462c-1.585,1.791-2.623,3.99-4.341,5.696c-0.822,0.822-0.599,1.412,0.58,1.978
		c5.611,2.718,6.157,7.666,1.338,11.525c-1.159,0.928-2.31,1.887-3.568,2.661c-0.965,0.594-2.146,0.714-2.922-0.349
		c-0.798-1.102-0.952-2.328,0.197-3.368c0.918-0.831,1.897-1.555,3.012-2.146c0.853-0.454,1.641-1.302,1.508-2.405
		c-0.144-1.184-1.149-1.473-2.188-1.671c-3.175-0.597-6.031,0.361-8.82,1.716c-1.035,0.502-2.037,1.125-3.122,1.456
		c-0.945,0.288-2.041,0.324-2.6-0.836c-0.488-1.015-0.307-1.935,0.5-2.729c1.212-1.189,2.729-1.866,4.184-2.672
		C20.333,82.629,24.171,80.339,26.389,76.183z"/>
	<path fill-rule="evenodd" clip-rule="evenodd" fill="#080609" d="M41.437,61.94c3.805-0.237,7.603-0.484,11.403-0.712
		c0.473-0.026,1.092-0.208,1.301,0.39c0.204,0.579-0.349,0.849-0.748,1.135c-2.626,1.882-5.252,3.762-7.883,5.642
		C44.682,65.91,42.252,64.433,41.437,61.94z"/>
	<path fill-rule="evenodd" clip-rule="evenodd" fill="#080609" d="M133.187,26.617c0.007,3.864-3.106,6.989-6.956,6.976
		c-3.808-0.014-6.994-3.231-6.946-7.019c0.046-3.682,3.165-6.801,6.863-6.854C129.983,19.665,133.179,22.799,133.187,26.617z"/>
</g>
</svg>
