<?xml version="1.0" encoding="utf-8"?>
<!DOCTYPE svg PUBLIC "-//W3C//DTD SVG 1.1//EN" "http://www.w3.org/Graphics/SVG/1.1/DTD/svg11.dtd">
<svg version="1.1" id="Capa_1" xmlns="http://www.w3.org/2000/svg" xmlns:xlink="http://www.w3.org/1999/xlink" x="0px" y="0px"
	 viewBox="0 0 300 123.958" enable-background="new 0 0 300 123.958" xml:space="preserve">
<g>
	<path fill-rule="evenodd" clip-rule="evenodd" fill="#080609" d="M151.894,88.917c0.055-1.025,0.137-2.052,0.159-3.08
		c0.034-1.529-0.271-1.748-1.714-1.143c-4.353,1.826-8.897,2.707-13.603,2.69c-16.641-0.057-30.996-12.1-33.614-28.509
		c-2.98-18.688,9.339-36.916,29.235-39.506c19.112-2.486,36.336,11.055,38.502,30.202c0.233,2.056,0.408,4.092,0.126,6.149
		c-0.24,1.754,0.148,2.028,1.857,1.348c10.033-3.998,19.879-3.71,29.454,1.42c12.005,6.43,19.496,20.497,17.868,33.406
		c-1.851,14.675-11.956,26.455-25.653,29.904c-18.363,4.622-37.34-6.88-41.732-25.312C152.188,94.005,151.916,91.476,151.894,88.917
		z M110.424,53.207c0.004,14.586,11.834,26.366,26.48,26.37c14.578,0.004,26.431-11.899,26.4-26.515
		c-0.027-14.047-12.08-26.254-25.91-26.245C122.282,26.826,110.42,38.432,110.424,53.207z M159.683,88.514
		c-0.151,14.286,11.598,26.284,25.933,26.482c14.624,0.2,26.678-11.477,26.862-26.023c0.18-14.334-11.576-26.646-25.607-26.82
		C171.771,61.964,159.84,73.533,159.683,88.514z"/>
	<path fill-rule="evenodd" clip-rule="evenodd" fill="#080609" d="M74.413,104.063c-1.312-1.967-3.172-3.398-4.902-4.949
		c-4.364-3.912-6.54-8.823-6.64-14.637c-0.074-4.389,0.018-8.778,0.013-13.168c-0.004-3.798-1.542-6.689-5.067-8.361
		c-2.004-0.95-4.046-1.83-6.016-2.846c-5.929-3.057-8.999-7.944-9.097-14.623c-0.056-3.738,0.017-7.477,0.025-11.215
		c0.001-1.329-0.396-2.559-1.012-3.717c-0.914-1.72-1.706-1.973-3.394-1.04c-8.056,4.449-16.103,8.915-24.156,13.367
		c-1.799,0.996-3.612,1.965-5.417,2.945c-0.289-0.101-0.407-0.212-0.236-0.568c0.974-2.033,0.321-3.808-1.06-5.348
		c-0.903-1.007-2.328-1.044-3.515-1.524c9.373-5.198,18.743-10.397,28.117-15.59c11.835-6.556,23.672-13.105,35.51-19.654
		c1.148-0.636,2.317-1.197,3.696-0.844c1.941,0.499,3.4,2.14,3.62,4.14c0.219,1.982-0.772,3.283-2.434,4.2
		c-6.538,3.608-13.073,7.225-19.607,10.84c-0.805,0.445-1.625,0.87-2.396,1.37c-1.275,0.826-1.653,1.983-0.952,3.356
		c2.253,4.409,2.617,9.1,2.169,13.928c-0.195,2.105-0.318,4.213-0.045,6.325c0.313,2.425,1.478,4.279,3.663,5.41
		c1.873,0.969,3.756,1.927,5.686,2.772c7.408,3.249,10.713,9.114,10.839,16.969c0.06,3.789-0.015,7.583-0.129,11.373
		c-0.122,4.062,1.267,7.393,4.372,10.041c1.563,1.333,3.065,2.741,4.372,4.349c0.963,1.185,1.809,2.422,2.3,3.877
		c-0.722-0.205-1.441-0.411-2.164-0.603C77.446,99.809,75.337,100.986,74.413,104.063z"/>
	<path fill-rule="evenodd" clip-rule="evenodd" fill="#080609" d="M248.742,104.161c-1.241-1.954-3.053-3.361-4.749-4.867
		c-4.467-3.968-6.765-8.926-6.821-14.885c-0.038-4.115-0.003-8.235,0.082-12.35c0.093-4.637-1.897-7.851-6.195-9.681
		c-2.288-0.974-4.603-1.902-6.709-3.266c-5.758-3.726-7.637-9.262-7.437-15.792c0.083-2.708,0.158-5.415,0.162-8.122
		c0.003-1.521-0.229-3.023-0.921-4.418c-0.955-1.924-1.831-2.214-3.724-1.168c-9.475,5.236-18.945,10.479-28.418,15.719
		c-0.331,0.183-0.675,0.34-1.008,0.509c-0.482-0.172-0.27-0.463-0.145-0.758c0.691-1.639,0.33-3.102-0.603-4.566
		c-0.955-1.502-2.597-1.562-3.99-2.155c11.736-6.508,23.474-13.019,35.211-19.523c9.514-5.271,19.024-10.548,28.549-15.8
		c3.177-1.751,6.204-0.447,7.034,2.968c0.471,1.932-0.285,3.471-2.384,4.637c-6.524,3.632-13.062,7.244-19.599,10.852
		c-4.161,2.297-4.163,2.286-2.427,6.716c1.498,3.819,1.749,7.779,1.319,11.817c-0.238,2.263-0.359,4.519,0.021,6.793
		c0.433,2.594,1.914,4.295,4.195,5.401c1.801,0.873,3.607,1.737,5.424,2.572c6.462,2.973,9.816,8.044,10.389,15.094
		c0.301,3.689,0.189,7.378-0.066,11.041c-0.382,5.445,1.255,9.824,5.631,13.247c2.436,1.905,4.459,4.271,5.586,7.254
		c-0.538,0.157-0.885-0.204-1.306-0.431C253.488,99.737,249.173,100.396,248.742,104.161z"/>
	<path fill-rule="evenodd" clip-rule="evenodd" fill="#080609" d="M236.94,40.28c10.243-4.222,20.478-8.463,30.733-12.655
		c3.165-1.294,6.27,0.979,6.021,4.474c-0.65,9.069-1.381,18.132-1.849,27.214c-0.729,14.111-1.206,28.23-1.235,42.362
		c-0.003,1.79,0.354,2.09,1.822,1.44c4.991-2.215,9.993-4.415,14.931-6.746c1-0.471,2.549-0.646,2.518-2.345
		c0.29-1.183,0.672-0.221,0.964-0.018c2.832,1.972,5.886,1.038,7.144-2.191c0.074-0.193,0.21-0.361,0.318-0.539
		c0.152,1.321,0.678,2.572,0.534,3.961c-0.386,3.742-2.444,6.328-5.627,8.016c-5.494,2.916-11.267,5.252-16.897,7.885
		c-2.499,1.168-5.021,2.287-7.54,3.404c-4.021,1.783-7.086-0.19-7.108-4.57c-0.104-19.125,0.495-38.23,1.592-57.321
		c0.213-3.729,0.586-7.447,0.873-11.173c0.189-2.471-0.221-2.755-2.478-1.822c-6.246,2.58-12.496,5.15-18.746,7.719
		c-0.542,0.224-1.097,0.414-1.644,0.618c-0.155-0.329-0.011-0.597,0.107-0.905c0.902-2.337,0.3-4.33-1.623-5.814
		C238.9,40.618,237.737,40.995,236.94,40.28z"/>
	<path fill-rule="evenodd" clip-rule="evenodd" fill="#000000" d="M124.146,91.85c1.208,4.762-0.55,8.764-5.067,11.321
		c-3.628,2.054-7.511,3.585-11.283,5.346c-4.41,2.057-8.861,4.026-13.303,6.016c-4.013,1.796-7.083-0.179-7.103-4.549
		c-0.095-21.067,0.626-42.11,1.951-63.134c0.126-1.999,0.351-3.991,0.477-5.991c0.111-1.757-0.324-2.052-1.992-1.37
		c-6.251,2.556-12.495,5.128-18.744,7.687c-0.788,0.324-1.593,0.609-2.388,0.912c0.081-0.252,0.128-0.522,0.247-0.756
		c1.158-2.267,0.463-4.961-1.704-6.152c-0.78-0.429-1.714-0.573-2.578-0.847c8.296-3.436,16.593-6.869,24.89-10.305
		c1.95-0.806,3.884-1.65,5.851-2.412c3.129-1.213,6.222,0.991,6.009,4.351c-0.583,9.243-1.263,18.483-1.854,27.728
		c-0.688,10.762-0.957,21.539-1.141,32.318c-0.056,3.305-0.066,6.609-0.114,9.915c-0.018,1.188,0.398,1.86,1.651,1.295
		c5.424-2.449,10.829-4.939,16.244-7.407c1.114-0.51,1.684-1.271,1.277-2.536c0.369-0.02,0.565,0.239,0.79,0.473
		c1.813,1.886,6.269,1.7,7.272-1.512C123.648,91.875,123.843,91.824,124.146,91.85z"/>
	<path fill-rule="evenodd" clip-rule="evenodd" fill="#E62A2B" d="M74.413,104.063c0.924-3.077,3.033-4.255,6.143-3.424
		c0.723,0.191,1.442,0.397,2.164,0.603c1.035,1.701,1.282,3.447,0.097,5.156c-1.16,1.671-2.9,2.043-4.766,1.698
		C75.869,107.694,74.733,106.216,74.413,104.063z"/>
	<path fill-rule="evenodd" clip-rule="evenodd" fill="#E62A2B" d="M248.742,104.161c0.431-3.765,4.746-4.424,7.103-3.162
		c0.421,0.227,0.768,0.588,1.306,0.431c1.025,1.729,1.104,3.454-0.14,5.098c-1.217,1.607-2.96,1.919-4.784,1.554
		C250.154,107.667,249.041,106.238,248.742,104.161z"/>
	<path fill-rule="evenodd" clip-rule="evenodd" fill="#E62A2B" d="M178.268,38.361c1.394,0.594,3.035,0.653,3.99,2.155
		c0.933,1.465,1.294,2.928,0.603,4.566c-0.125,0.295-0.338,0.586,0.145,0.758c-3.148,2.119-5.546,1.789-7.283-0.972
		C174.401,42.77,174.669,39.576,178.268,38.361z"/>
	<path fill-rule="evenodd" clip-rule="evenodd" fill="#E62A2B" d="M3.939,38.38c1.188,0.48,2.612,0.518,3.515,1.524
		c1.381,1.54,2.034,3.314,1.06,5.348C8.343,45.608,8.461,45.72,8.75,45.82c-3.49,2.354-6.899,1.384-7.836-2.23
		C0.292,41.188,1.161,39.689,3.939,38.38z"/>
	<path fill-rule="evenodd" clip-rule="evenodd" fill="#E62A2B" d="M298.307,91.276c-0.108,0.178-0.244,0.346-0.318,0.539
		c-1.258,3.229-4.312,4.163-7.144,2.191c-0.292-0.203-0.674-1.165-0.964,0.018c-1.222-2.771-0.316-5.42,2.158-6.317
		C294.847,86.689,297.251,88.06,298.307,91.276z"/>
	<path fill-rule="evenodd" clip-rule="evenodd" fill="#E62A2B" d="M236.94,40.28c0.797,0.715,1.96,0.338,2.81,0.992
		c1.923,1.484,2.525,3.478,1.623,5.814c-0.118,0.309-0.263,0.576-0.107,0.905c-3.062,1.634-5.751,0.812-6.912-2.11
		C233.429,43.56,234.28,41.723,236.94,40.28z"/>
	<path fill-rule="evenodd" clip-rule="evenodd" fill="#E62A2B" d="M124.146,91.85c-0.302-0.025-0.497,0.025-0.613,0.39
		c-1.003,3.212-5.459,3.397-7.272,1.512c-0.225-0.233-0.42-0.492-0.79-0.473l0.059,0.014c0.09-0.406,0.072-0.775-0.351-1.003
		c-0.322-2.068,0.692-3.858,2.585-4.565c2.006-0.751,4.431-0.072,5.432,1.618C123.647,90.105,124.169,90.888,124.146,91.85z"/>
	<path fill-rule="evenodd" clip-rule="evenodd" fill="#E62A2B" d="M62.658,40.332c0.864,0.273,1.797,0.418,2.578,0.847
		c2.167,1.191,2.862,3.886,1.704,6.152c-0.119,0.233-0.166,0.504-0.247,0.756c-2.64,1.435-5.16,0.755-6.409-1.731
		C59.017,43.831,59.851,41.712,62.658,40.332z"/>
</g>
</svg>
